<svg width="307" height="420" viewBox="0 0 307 420" fill="none" xmlns="http://www.w3.org/2000/svg">
<path d="M56.0071 78H38.9616L38.9616 19.8182L57.0298 19.8182C62.5791 19.8182 67.3234 20.9735 71.2628 23.2841C75.2211 25.5947 78.2514 28.9091 80.3537 33.2273C82.456 37.5455 83.5071 42.7254 83.5071 48.767C83.5071 54.8655 82.4276 60.1023 80.2685 64.4773C78.1283 68.8333 75.0033 72.1761 70.8935 74.5057C66.8026 76.8352 61.8404 78 56.0071 78ZM44.2741 73.2273H55.6946C60.6946 73.2273 64.8802 72.2424 68.2514 70.2727C71.6226 68.303 74.151 65.4905 75.8366 61.8352C77.5223 58.1799 78.3651 53.8239 78.3651 48.767C78.3461 43.7481 77.5128 39.4299 75.8651 35.8125C74.2363 32.1951 71.812 29.4205 68.5923 27.4886C65.3916 25.5568 61.4332 24.5909 56.7173 24.5909L44.2741 24.5909L44.2741 73.2273ZM111.696 19.8182L111.696 78H106.384L106.384 19.8182H111.696ZM137.165 78V19.8182L170.915 19.8182V24.5909L142.477 24.5909V46.4943H169.125V51.267H142.477V73.2273H171.483V78H137.165ZM240.233 38H234.892C234.494 36.0114 233.775 34.1742 232.733 32.4886C231.71 30.7841 230.422 29.2973 228.869 28.0284C227.316 26.7595 225.555 25.7746 223.585 25.0739C221.616 24.3731 219.485 24.0227 217.193 24.0227C213.519 24.0227 210.167 24.9792 207.136 26.892C204.125 28.8049 201.71 31.6174 199.892 35.3295C198.093 39.0227 197.193 43.5492 197.193 48.9091C197.193 54.3068 198.093 58.8523 199.892 62.5455C201.71 66.2386 204.125 69.0417 207.136 70.9545C210.167 72.8485 213.519 73.7955 217.193 73.7955C219.485 73.7955 221.616 73.4451 223.585 72.7443C225.555 72.0436 227.316 71.0682 228.869 69.8182C230.422 68.5492 231.71 67.0625 232.733 65.358C233.775 63.6534 234.494 61.8068 234.892 59.8182H240.233C239.759 62.4886 238.869 64.9792 237.562 67.2898C236.275 69.5814 234.627 71.589 232.619 73.3125C230.631 75.036 228.339 76.3807 225.744 77.3466C223.15 78.3125 220.299 78.7955 217.193 78.7955C212.307 78.7955 207.97 77.5739 204.182 75.1307C200.394 72.6686 197.42 69.2027 195.261 64.733C193.121 60.2633 192.051 54.9886 192.051 48.9091C192.051 42.8295 193.121 37.5549 195.261 33.0852C197.42 28.6155 200.394 25.1591 204.182 22.7159C207.97 20.2538 212.307 19.0227 217.193 19.0227C220.299 19.0227 223.15 19.5057 225.744 20.4716C228.339 21.4186 230.631 22.7633 232.619 24.5057C234.627 26.2292 236.275 28.2367 237.562 30.5284C238.869 32.8201 239.759 35.3106 240.233 38ZM268.024 19.8182V78H262.712V19.8182H268.024Z" fill="#1E1E1E"/>
<path d="M255.735 134.574C258.973 134.253 261.549 132.823 263.462 130.285C265.375 127.747 266.331 124.556 266.331 120.711C266.331 118.003 265.867 115.616 264.939 113.552C264.011 111.506 262.723 109.896 261.076 108.722C259.447 107.567 257.591 106.989 255.507 106.989C253.973 106.989 252.629 107.321 251.473 107.984C250.318 108.646 249.324 109.537 248.49 110.654C247.676 111.79 246.975 113.04 246.388 114.404C245.801 115.787 245.309 117.179 244.911 118.58L243.15 124.717C242.638 126.573 241.985 128.429 241.189 130.285C240.394 132.141 239.39 133.836 238.178 135.37C236.985 136.923 235.517 138.164 233.775 139.092C232.051 140.039 229.977 140.512 227.553 140.512C224.447 140.512 221.653 139.707 219.172 138.097C216.691 136.487 214.721 134.177 213.263 131.165C211.824 128.154 211.104 124.546 211.104 120.342C211.104 116.383 211.757 112.946 213.064 110.029C214.39 107.112 216.218 104.821 218.547 103.154C220.877 101.487 223.576 100.55 226.644 100.342V105.796C224.352 105.985 222.411 106.743 220.82 108.069C219.229 109.395 218.017 111.118 217.184 113.239C216.369 115.36 215.962 117.728 215.962 120.342C215.962 123.239 216.445 125.815 217.411 128.069C218.396 130.342 219.759 132.122 221.502 133.41C223.263 134.717 225.309 135.37 227.638 135.37C229.608 135.37 231.256 134.859 232.581 133.836C233.926 132.813 235.053 131.383 235.962 129.546C236.871 127.728 237.676 125.616 238.377 123.211L240.422 116.251C241.786 111.686 243.67 108.145 246.076 105.626C248.481 103.107 251.549 101.847 255.28 101.847C258.405 101.847 261.151 102.681 263.519 104.347C265.905 106.033 267.761 108.306 269.087 111.165C270.432 114.044 271.104 117.273 271.104 120.853C271.104 124.47 270.441 127.671 269.115 130.455C267.79 133.239 265.962 135.446 263.632 137.075C261.322 138.722 258.689 139.603 255.735 139.717V134.574ZM270.28 168.609H212.098V163.296H270.28V168.609ZM212.098 194.077H270.28V227.827H265.507V199.39H243.604V226.038H238.831V199.39H216.871V228.396H212.098V194.077ZM265.507 248.055H270.28V290.242H265.507V271.805H212.098V266.492H265.507V248.055ZM212.098 312.202H270.28V345.952H265.507V317.515H243.604V344.163H238.831V317.515H216.871L216.871 346.521H212.098L212.098 312.202Z" fill="#1E1E1E"/>
</svg>
