<svg width="350" height="352" viewBox="0 0 350 352" fill="none" xmlns="http://www.w3.org/2000/svg">
<circle cx="114.183" cy="3.86585" r="3.86585" fill="black"/>
<circle cx="114.183" cy="197.159" r="3.86585" fill="black"/>
<circle cx="114.183" cy="100.512" r="3.86585" fill="black"/>
<circle cx="114.183" cy="293.805" r="3.86585" fill="black"/>
<circle cx="114.183" cy="42.5244" r="3.86585" fill="black"/>
<circle cx="114.183" cy="235.817" r="3.86585" fill="black"/>
<circle cx="114.183" cy="139.171" r="3.86585" fill="black"/>
<circle cx="114.183" cy="23.1951" r="3.86585" fill="black"/>
<circle cx="114.183" cy="216.488" r="3.86585" fill="black"/>
<circle cx="114.183" cy="119.841" r="3.86585" fill="black"/>
<circle cx="114.183" cy="313.134" r="3.86585" fill="black"/>
<circle cx="114.183" cy="61.8536" r="3.86585" fill="black"/>
<circle cx="114.183" cy="255.146" r="3.86585" fill="black"/>
<circle cx="114.183" cy="158.5" r="3.86585" fill="black"/>
<circle cx="114.183" cy="81.1829" r="3.86585" fill="black"/>
<circle cx="114.183" cy="274.476" r="3.86585" fill="black"/>
<circle cx="114.183" cy="177.829" r="3.86585" fill="black"/>
<circle cx="268.817" cy="3.86585" r="3.86585" fill="black"/>
<circle cx="268.817" cy="197.159" r="3.86585" fill="black"/>
<circle cx="268.817" cy="100.512" r="3.86585" fill="black"/>
<circle cx="268.817" cy="293.805" r="3.86585" fill="black"/>
<circle cx="268.817" cy="42.5244" r="3.86585" fill="black"/>
<circle cx="268.817" cy="235.817" r="3.86585" fill="black"/>
<circle cx="268.817" cy="139.171" r="3.86585" fill="black"/>
<circle cx="268.817" cy="23.1951" r="3.86585" fill="black"/>
<circle cx="268.817" cy="216.488" r="3.86585" fill="black"/>
<circle cx="268.817" cy="119.841" r="3.86585" fill="black"/>
<circle cx="268.817" cy="313.134" r="3.86585" fill="black"/>
<circle cx="268.817" cy="61.8536" r="3.86585" fill="black"/>
<circle cx="268.817" cy="255.146" r="3.86585" fill="black"/>
<circle cx="268.817" cy="158.5" r="3.86585" fill="black"/>
<circle cx="268.817" cy="81.1829" r="3.86585" fill="black"/>
<circle cx="268.817" cy="274.476" r="3.86585" fill="black"/>
<circle cx="268.817" cy="177.829" r="3.86585" fill="black"/>
<circle cx="36.8659" cy="3.86585" r="3.86585" fill="black"/>
<circle cx="36.8659" cy="197.159" r="3.86585" fill="black"/>
<circle cx="36.8659" cy="100.512" r="3.86585" fill="black"/>
<circle cx="36.8659" cy="293.805" r="3.86585" fill="black"/>
<circle cx="36.8659" cy="42.5244" r="3.86585" fill="black"/>
<circle cx="36.8659" cy="235.817" r="3.86585" fill="black"/>
<circle cx="36.8659" cy="139.171" r="3.86585" fill="black"/>
<circle cx="36.8659" cy="23.1951" r="3.86585" fill="black"/>
<circle cx="36.8659" cy="216.488" r="3.86585" fill="black"/>
<circle cx="36.8659" cy="119.841" r="3.86585" fill="black"/>
<circle cx="36.8659" cy="313.134" r="3.86585" fill="black"/>
<circle cx="36.8659" cy="61.8536" r="3.86585" fill="black"/>
<circle cx="36.8659" cy="255.146" r="3.86585" fill="black"/>
<circle cx="36.8659" cy="158.5" r="3.86585" fill="black"/>
<circle cx="36.8659" cy="81.1829" r="3.86585" fill="black"/>
<circle cx="36.8659" cy="274.476" r="3.86585" fill="black"/>
<circle cx="36.8659" cy="177.829" r="3.86585" fill="black"/>
<circle cx="191.5" cy="3.86585" r="3.86585" fill="black"/>
<circle cx="191.5" cy="197.159" r="3.86585" fill="black"/>
<circle cx="191.5" cy="100.512" r="3.86585" fill="black"/>
<circle cx="191.5" cy="293.805" r="3.86585" fill="black"/>
<circle cx="191.5" cy="42.5244" r="3.86585" fill="black"/>
<circle cx="191.5" cy="235.817" r="3.86585" fill="black"/>
<circle cx="191.5" cy="139.171" r="3.86585" fill="black"/>
<circle cx="191.5" cy="23.1951" r="3.86585" fill="black"/>
<circle cx="191.5" cy="216.488" r="3.86585" fill="black"/>
<circle cx="191.5" cy="119.841" r="3.86585" fill="black"/>
<circle cx="191.5" cy="313.134" r="3.86585" fill="black"/>
<circle cx="191.5" cy="61.8536" r="3.86585" fill="black"/>
<circle cx="191.5" cy="255.146" r="3.86585" fill="black"/>
<circle cx="191.5" cy="158.5" r="3.86585" fill="black"/>
<circle cx="191.5" cy="81.1829" r="3.86585" fill="black"/>
<circle cx="191.5" cy="274.476" r="3.86585" fill="black"/>
<circle cx="191.5" cy="177.829" r="3.86585" fill="black"/>
<circle cx="152.841" cy="3.86585" r="3.86585" fill="black"/>
<circle cx="152.841" cy="197.159" r="3.86585" fill="black"/>
<circle cx="152.841" cy="100.512" r="3.86585" fill="black"/>
<circle cx="152.841" cy="293.805" r="3.86585" fill="black"/>
<circle cx="152.841" cy="42.5244" r="3.86585" fill="black"/>
<circle cx="152.841" cy="235.817" r="3.86585" fill="black"/>
<circle cx="152.841" cy="139.171" r="3.86585" fill="black"/>
<circle cx="152.841" cy="23.1951" r="3.86585" fill="black"/>
<circle cx="152.841" cy="216.488" r="3.86585" fill="black"/>
<circle cx="152.841" cy="119.841" r="3.86585" fill="black"/>
<circle cx="152.841" cy="313.134" r="3.86585" fill="black"/>
<circle cx="152.841" cy="61.8536" r="3.86585" fill="black"/>
<circle cx="152.841" cy="255.146" r="3.86585" fill="black"/>
<circle cx="152.841" cy="158.5" r="3.86585" fill="black"/>
<circle cx="152.841" cy="81.1829" r="3.86585" fill="black"/>
<circle cx="152.841" cy="274.476" r="3.86585" fill="black"/>
<circle cx="152.841" cy="177.829" r="3.86585" fill="black"/>
<circle cx="307.476" cy="3.86585" r="3.86585" fill="black"/>
<circle cx="307.476" cy="197.159" r="3.86585" fill="black"/>
<circle cx="307.476" cy="100.512" r="3.86585" fill="black"/>
<circle cx="307.476" cy="293.805" r="3.86585" fill="black"/>
<circle cx="307.476" cy="42.5244" r="3.86585" fill="black"/>
<circle cx="307.476" cy="235.817" r="3.86585" fill="black"/>
<circle cx="307.476" cy="139.171" r="3.86585" fill="black"/>
<circle cx="307.476" cy="23.1951" r="3.86585" fill="black"/>
<circle cx="307.476" cy="216.488" r="3.86585" fill="black"/>
<circle cx="307.476" cy="119.841" r="3.86585" fill="black"/>
<circle cx="307.476" cy="313.134" r="3.86585" fill="black"/>
<circle cx="307.476" cy="61.8536" r="3.86585" fill="black"/>
<circle cx="307.476" cy="255.146" r="3.86585" fill="black"/>
<circle cx="307.476" cy="158.5" r="3.86585" fill="black"/>
<circle cx="307.476" cy="81.1829" r="3.86585" fill="black"/>
<circle cx="307.476" cy="274.476" r="3.86585" fill="black"/>
<circle cx="307.476" cy="177.829" r="3.86585" fill="black"/>
<circle cx="75.5243" cy="3.86585" r="3.86585" fill="black"/>
<circle cx="75.5243" cy="197.159" r="3.86585" fill="black"/>
<circle cx="75.5243" cy="100.512" r="3.86585" fill="black"/>
<circle cx="75.5243" cy="293.805" r="3.86585" fill="black"/>
<circle cx="75.5243" cy="42.5244" r="3.86585" fill="black"/>
<circle cx="75.5243" cy="235.817" r="3.86585" fill="black"/>
<circle cx="75.5243" cy="139.171" r="3.86585" fill="black"/>
<circle cx="75.5243" cy="23.1951" r="3.86585" fill="black"/>
<circle cx="75.5243" cy="216.488" r="3.86585" fill="black"/>
<circle cx="75.5243" cy="119.841" r="3.86585" fill="black"/>
<circle cx="75.5243" cy="313.134" r="3.86585" fill="black"/>
<circle cx="75.5243" cy="61.8536" r="3.86585" fill="black"/>
<circle cx="75.5243" cy="255.146" r="3.86585" fill="black"/>
<circle cx="75.5243" cy="158.5" r="3.86585" fill="black"/>
<circle cx="75.5243" cy="81.1829" r="3.86585" fill="black"/>
<circle cx="75.5243" cy="274.476" r="3.86585" fill="black"/>
<circle cx="75.5243" cy="177.829" r="3.86585" fill="black"/>
<circle cx="230.159" cy="3.86585" r="3.86585" fill="black"/>
<circle cx="230.159" cy="197.159" r="3.86585" fill="black"/>
<circle cx="230.159" cy="100.512" r="3.86585" fill="black"/>
<circle cx="230.159" cy="293.805" r="3.86585" fill="black"/>
<circle cx="230.159" cy="42.5244" r="3.86585" fill="black"/>
<circle cx="230.159" cy="235.817" r="3.86585" fill="black"/>
<circle cx="230.159" cy="139.171" r="3.86585" fill="black"/>
<circle cx="230.159" cy="23.1951" r="3.86585" fill="black"/>
<circle cx="230.159" cy="216.488" r="3.86585" fill="black"/>
<circle cx="230.159" cy="119.841" r="3.86585" fill="black"/>
<circle cx="230.159" cy="313.134" r="3.86585" fill="black"/>
<circle cx="230.159" cy="61.8536" r="3.86585" fill="black"/>
<circle cx="230.159" cy="255.146" r="3.86585" fill="black"/>
<circle cx="230.159" cy="158.5" r="3.86585" fill="black"/>
<circle cx="230.159" cy="81.1829" r="3.86585" fill="black"/>
<circle cx="230.159" cy="274.476" r="3.86585" fill="black"/>
<circle cx="230.159" cy="177.829" r="3.86585" fill="black"/>
<circle cx="133.512" cy="3.86585" r="3.86585" fill="black"/>
<circle cx="133.512" cy="197.159" r="3.86585" fill="black"/>
<circle cx="133.512" cy="100.512" r="3.86585" fill="black"/>
<circle cx="133.512" cy="293.805" r="3.86585" fill="black"/>
<circle cx="133.512" cy="42.5244" r="3.86585" fill="black"/>
<circle cx="133.512" cy="235.817" r="3.86585" fill="black"/>
<circle cx="133.512" cy="139.171" r="3.86585" fill="black"/>
<circle cx="133.512" cy="23.1951" r="3.86585" fill="black"/>
<circle cx="133.512" cy="216.488" r="3.86585" fill="black"/>
<circle cx="133.512" cy="119.841" r="3.86585" fill="black"/>
<circle cx="133.512" cy="313.134" r="3.86585" fill="black"/>
<circle cx="133.512" cy="61.8536" r="3.86585" fill="black"/>
<circle cx="133.512" cy="255.146" r="3.86585" fill="black"/>
<circle cx="133.512" cy="158.5" r="3.86585" fill="black"/>
<circle cx="133.512" cy="81.1829" r="3.86585" fill="black"/>
<circle cx="133.512" cy="274.476" r="3.86585" fill="black"/>
<circle cx="133.512" cy="177.829" r="3.86585" fill="black"/>
<circle cx="288.146" cy="3.86585" r="3.86585" fill="black"/>
<circle cx="288.146" cy="197.159" r="3.86585" fill="black"/>
<circle cx="288.146" cy="100.512" r="3.86585" fill="black"/>
<circle cx="288.146" cy="293.805" r="3.86585" fill="black"/>
<circle cx="288.146" cy="42.5244" r="3.86585" fill="black"/>
<circle cx="288.146" cy="235.817" r="3.86585" fill="black"/>
<circle cx="288.146" cy="139.171" r="3.86585" fill="black"/>
<circle cx="288.146" cy="23.1951" r="3.86585" fill="black"/>
<circle cx="288.146" cy="216.488" r="3.86585" fill="black"/>
<circle cx="288.146" cy="119.841" r="3.86585" fill="black"/>
<circle cx="288.146" cy="313.134" r="3.86585" fill="black"/>
<circle cx="288.146" cy="61.8536" r="3.86585" fill="black"/>
<circle cx="288.146" cy="255.146" r="3.86585" fill="black"/>
<circle cx="288.146" cy="158.5" r="3.86585" fill="black"/>
<circle cx="288.146" cy="81.1829" r="3.86585" fill="black"/>
<circle cx="288.146" cy="274.476" r="3.86585" fill="black"/>
<circle cx="288.146" cy="177.829" r="3.86585" fill="black"/>
<circle cx="56.1952" cy="3.86585" r="3.86585" fill="black"/>
<circle cx="56.1952" cy="197.159" r="3.86585" fill="black"/>
<circle cx="56.1952" cy="100.512" r="3.86585" fill="black"/>
<circle cx="56.1952" cy="293.805" r="3.86585" fill="black"/>
<circle cx="56.1952" cy="42.5244" r="3.86585" fill="black"/>
<circle cx="56.1952" cy="235.817" r="3.86585" fill="black"/>
<circle cx="56.1952" cy="139.171" r="3.86585" fill="black"/>
<circle cx="56.1952" cy="23.1951" r="3.86585" fill="black"/>
<circle cx="56.1952" cy="216.488" r="3.86585" fill="black"/>
<circle cx="56.1952" cy="119.841" r="3.86585" fill="black"/>
<circle cx="56.1952" cy="313.134" r="3.86585" fill="black"/>
<circle cx="56.1952" cy="61.8536" r="3.86585" fill="black"/>
<circle cx="56.1952" cy="255.146" r="3.86585" fill="black"/>
<circle cx="56.1952" cy="158.5" r="3.86585" fill="black"/>
<circle cx="56.1952" cy="81.1829" r="3.86585" fill="black"/>
<circle cx="56.1952" cy="274.476" r="3.86585" fill="black"/>
<circle cx="56.1952" cy="177.829" r="3.86585" fill="black"/>
<circle cx="210.829" cy="3.86585" r="3.86585" fill="black"/>
<circle cx="210.829" cy="197.159" r="3.86585" fill="black"/>
<circle cx="210.829" cy="100.512" r="3.86585" fill="black"/>
<circle cx="210.829" cy="293.805" r="3.86585" fill="black"/>
<circle cx="210.829" cy="42.5244" r="3.86585" fill="black"/>
<circle cx="210.829" cy="235.817" r="3.86585" fill="black"/>
<circle cx="210.829" cy="139.171" r="3.86585" fill="black"/>
<circle cx="210.829" cy="23.1951" r="3.86585" fill="black"/>
<circle cx="210.829" cy="216.488" r="3.86585" fill="black"/>
<circle cx="210.829" cy="119.841" r="3.86585" fill="black"/>
<circle cx="210.829" cy="313.134" r="3.86585" fill="black"/>
<circle cx="210.829" cy="61.8536" r="3.86585" fill="black"/>
<circle cx="210.829" cy="255.146" r="3.86585" fill="black"/>
<circle cx="210.829" cy="158.5" r="3.86585" fill="black"/>
<circle cx="210.829" cy="81.1829" r="3.86585" fill="black"/>
<circle cx="210.829" cy="274.476" r="3.86585" fill="black"/>
<circle cx="210.829" cy="177.829" r="3.86585" fill="black"/>
<circle cx="172.171" cy="3.86585" r="3.86585" fill="black"/>
<circle cx="172.171" cy="197.159" r="3.86585" fill="black"/>
<circle cx="172.171" cy="100.512" r="3.86585" fill="black"/>
<circle cx="172.171" cy="293.805" r="3.86585" fill="black"/>
<circle cx="172.171" cy="42.5244" r="3.86585" fill="black"/>
<circle cx="172.171" cy="235.817" r="3.86585" fill="black"/>
<circle cx="172.171" cy="139.171" r="3.86585" fill="black"/>
<circle cx="172.171" cy="23.1951" r="3.86585" fill="black"/>
<circle cx="172.171" cy="216.488" r="3.86585" fill="black"/>
<circle cx="172.171" cy="119.841" r="3.86585" fill="black"/>
<circle cx="172.171" cy="313.134" r="3.86585" fill="black"/>
<circle cx="172.171" cy="61.8536" r="3.86585" fill="black"/>
<circle cx="172.171" cy="255.146" r="3.86585" fill="black"/>
<circle cx="172.171" cy="158.5" r="3.86585" fill="black"/>
<circle cx="172.171" cy="81.1829" r="3.86585" fill="black"/>
<circle cx="172.171" cy="274.476" r="3.86585" fill="black"/>
<circle cx="172.171" cy="177.829" r="3.86585" fill="black"/>
<circle cx="326.805" cy="3.86585" r="3.86585" fill="black"/>
<circle cx="326.805" cy="197.159" r="3.86585" fill="black"/>
<circle cx="326.805" cy="100.512" r="3.86585" fill="black"/>
<circle cx="326.805" cy="293.805" r="3.86585" fill="black"/>
<circle cx="326.805" cy="42.5244" r="3.86585" fill="black"/>
<circle cx="326.805" cy="235.817" r="3.86585" fill="black"/>
<circle cx="326.805" cy="139.171" r="3.86585" fill="black"/>
<circle cx="326.805" cy="23.1951" r="3.86585" fill="black"/>
<circle cx="326.805" cy="216.488" r="3.86585" fill="black"/>
<circle cx="326.805" cy="119.841" r="3.86585" fill="black"/>
<circle cx="326.805" cy="313.134" r="3.86585" fill="black"/>
<circle cx="326.805" cy="61.8536" r="3.86585" fill="black"/>
<circle cx="326.805" cy="255.146" r="3.86585" fill="black"/>
<circle cx="326.805" cy="158.5" r="3.86585" fill="black"/>
<circle cx="326.805" cy="81.1829" r="3.86585" fill="black"/>
<circle cx="326.805" cy="274.476" r="3.86585" fill="black"/>
<circle cx="326.805" cy="177.829" r="3.86585" fill="black"/>
<circle cx="346.134" cy="3.86585" r="3.86585" fill="black"/>
<circle cx="346.134" cy="197.159" r="3.86585" fill="black"/>
<circle cx="346.134" cy="100.512" r="3.86585" fill="black"/>
<circle cx="346.134" cy="293.805" r="3.86585" fill="black"/>
<circle cx="346.134" cy="42.5244" r="3.86585" fill="black"/>
<circle cx="346.134" cy="235.817" r="3.86585" fill="black"/>
<circle cx="346.134" cy="139.171" r="3.86585" fill="black"/>
<circle cx="346.134" cy="23.1951" r="3.86585" fill="black"/>
<circle cx="346.134" cy="216.488" r="3.86585" fill="black"/>
<circle cx="346.134" cy="119.841" r="3.86585" fill="black"/>
<circle cx="346.134" cy="313.134" r="3.86585" fill="black"/>
<circle cx="346.134" cy="61.8536" r="3.86585" fill="black"/>
<circle cx="346.134" cy="255.146" r="3.86585" fill="black"/>
<circle cx="346.134" cy="158.5" r="3.86585" fill="black"/>
<circle cx="346.134" cy="81.1829" r="3.86585" fill="black"/>
<circle cx="346.134" cy="274.476" r="3.86585" fill="black"/>
<circle cx="346.134" cy="177.829" r="3.86585" fill="black"/>
<circle cx="94.8538" cy="3.86585" r="3.86585" fill="black"/>
<circle cx="94.8538" cy="197.159" r="3.86585" fill="black"/>
<circle cx="94.8538" cy="100.512" r="3.86585" fill="black"/>
<circle cx="94.8538" cy="293.805" r="3.86585" fill="black"/>
<circle cx="94.8538" cy="42.5244" r="3.86585" fill="black"/>
<circle cx="94.8538" cy="235.817" r="3.86585" fill="black"/>
<circle cx="94.8538" cy="139.171" r="3.86585" fill="black"/>
<circle cx="94.8538" cy="23.1951" r="3.86585" fill="black"/>
<circle cx="94.8538" cy="216.488" r="3.86585" fill="black"/>
<circle cx="94.8538" cy="119.841" r="3.86585" fill="black"/>
<circle cx="94.8538" cy="313.134" r="3.86585" fill="black"/>
<circle cx="94.8538" cy="61.8536" r="3.86585" fill="black"/>
<circle cx="94.8538" cy="255.146" r="3.86585" fill="black"/>
<circle cx="94.8538" cy="158.5" r="3.86585" fill="black"/>
<circle cx="94.8538" cy="81.1829" r="3.86585" fill="black"/>
<circle cx="94.8538" cy="274.476" r="3.86585" fill="black"/>
<circle cx="94.8538" cy="177.829" r="3.86585" fill="black"/>
<circle cx="249.488" cy="3.86585" r="3.86585" fill="black"/>
<circle cx="249.488" cy="197.159" r="3.86585" fill="black"/>
<circle cx="249.488" cy="100.512" r="3.86585" fill="black"/>
<circle cx="249.488" cy="293.805" r="3.86585" fill="black"/>
<circle cx="249.488" cy="42.5244" r="3.86585" fill="black"/>
<circle cx="249.488" cy="235.817" r="3.86585" fill="black"/>
<circle cx="249.488" cy="139.171" r="3.86585" fill="black"/>
<circle cx="249.488" cy="23.1951" r="3.86585" fill="black"/>
<circle cx="249.488" cy="216.488" r="3.86585" fill="black"/>
<circle cx="249.488" cy="119.841" r="3.86585" fill="black"/>
<circle cx="249.488" cy="313.134" r="3.86585" fill="black"/>
<circle cx="249.488" cy="61.8536" r="3.86585" fill="black"/>
<circle cx="249.488" cy="255.146" r="3.86585" fill="black"/>
<circle cx="249.488" cy="158.5" r="3.86585" fill="black"/>
<circle cx="249.488" cy="81.1829" r="3.86585" fill="black"/>
<circle cx="249.488" cy="274.476" r="3.86585" fill="black"/>
<circle cx="249.488" cy="177.829" r="3.86585" fill="black"/>
<rect x="0.5" y="30.5" width="321" height="321" fill="white"/>
<rect x="1" y="31" width="320" height="320" fill="white" stroke="black" stroke-width="2"/>
<path d="M21.1364 102.784V98.7273H40.25V102.784H33.125V122H28.2614V102.784H21.1364Z" fill="black"/>
<path d="M47.3977 122V98.7273H52.3182V108.33H62.3068V98.7273H67.2159V122H62.3068V112.386H52.3182V122H47.3977Z" fill="black"/>
<path d="M75.2727 122V98.7273H90.9545V102.784H80.1932V108.33H90.1477V112.386H80.1932V117.943H91V122H75.2727Z" fill="black"/>
<path d="M29.9091 170H23.0909V146.727H30.3182C32.5379 146.727 34.4356 147.189 36.0114 148.114C37.5947 149.038 38.8068 150.364 39.6477 152.091C40.4886 153.818 40.9091 155.89 40.9091 158.307C40.9091 160.746 40.4773 162.841 39.6136 164.591C38.7576 166.333 37.5076 167.67 35.8636 168.602C34.2273 169.534 32.2424 170 29.9091 170ZM25.2159 168.091H29.7841C31.7841 168.091 33.4583 167.697 34.8068 166.909C36.1553 166.121 37.1667 164.996 37.8409 163.534C38.5152 162.072 38.8523 160.33 38.8523 158.307C38.8447 156.299 38.5114 154.572 37.8523 153.125C37.2008 151.678 36.2311 150.568 34.9432 149.795C33.6629 149.023 32.0795 148.636 30.1932 148.636H25.2159V168.091Z" fill="black"/>
<path d="M50.0597 170V146.727H63.5597V148.636H52.1847V157.398H62.8438V159.307H52.1847V168.091H63.7869V170H50.0597Z" fill="black"/>
<path d="M73.0597 170V146.727H75.1847V168.091H86.2756V170H73.0597Z" fill="black"/>
<path d="M97.1847 146.727V170H95.0597V146.727H97.1847Z" fill="black"/>
<path d="M107.406 146.727L114.679 167.239H114.884L122.156 146.727H124.384L115.918 170H113.645L105.179 146.727H107.406Z" fill="black"/>
<path d="M132.372 170V146.727H145.872V148.636H134.497V157.398H145.156V159.307H134.497V168.091H146.099V170H132.372Z" fill="black"/>
<path d="M155.372 170V146.727H162.884C164.535 146.727 165.914 147.027 167.02 147.625C168.134 148.216 168.971 149.038 169.531 150.091C170.099 151.136 170.384 152.337 170.384 153.693C170.384 155.049 170.099 156.246 169.531 157.284C168.971 158.322 168.137 159.133 167.031 159.716C165.925 160.299 164.554 160.591 162.918 160.591H156.52V158.648H162.861C164.073 158.648 165.08 158.447 165.884 158.045C166.694 157.644 167.296 157.072 167.69 156.33C168.092 155.587 168.293 154.708 168.293 153.693C168.293 152.678 168.092 151.792 167.69 151.034C167.289 150.269 166.683 149.678 165.872 149.261C165.069 148.845 164.054 148.636 162.827 148.636H157.497V170H155.372ZM165.634 159.5L171.361 170H168.906L163.236 159.5H165.634Z" fill="black"/>
<path d="M176.503 146.727H178.957L185.855 157.773H186.06L192.957 146.727H195.412L187.014 159.92V170H184.901V159.92L176.503 146.727Z" fill="black"/>
<path d="M23.125 218H20.8977L29.3636 194.727H31.6364L40.1023 218H37.875L30.5795 197.489H30.4205L23.125 218ZM24.7273 209.08H36.2727V210.989H24.7273V209.08Z" fill="black"/>
<path d="M48.0909 218V194.727H55.6023C57.2538 194.727 58.6326 195.045 59.7386 195.682C60.8523 196.311 61.6894 197.167 62.25 198.25C62.8182 199.333 63.1023 200.553 63.1023 201.909C63.1023 203.265 62.822 204.489 62.2614 205.58C61.7008 206.663 60.8674 207.523 59.7614 208.159C58.6553 208.788 57.2803 209.102 55.6364 209.102H49.7273V207.193H55.5795C56.7992 207.193 57.8106 206.966 58.6136 206.511C59.4167 206.049 60.0152 205.42 60.4091 204.625C60.8106 203.83 61.0114 202.924 61.0114 201.909C61.0114 200.894 60.8106 199.989 60.4091 199.193C60.0152 198.398 59.4129 197.773 58.6023 197.318C57.7992 196.864 56.7803 196.636 55.5455 196.636H50.2159V218H48.0909Z" fill="black"/>
<path d="M72.0909 218V194.727H79.6023C81.2538 194.727 82.6326 195.045 83.7386 195.682C84.8523 196.311 85.6894 197.167 86.25 198.25C86.8182 199.333 87.1023 200.553 87.1023 201.909C87.1023 203.265 86.822 204.489 86.2614 205.58C85.7008 206.663 84.8674 207.523 83.7614 208.159C82.6553 208.788 81.2803 209.102 79.6364 209.102H73.7273V207.193H79.5795C80.7992 207.193 81.8106 206.966 82.6136 206.511C83.4167 206.049 84.0151 205.42 84.4091 204.625C84.8106 203.83 85.0114 202.924 85.0114 201.909C85.0114 200.894 84.8106 199.989 84.4091 199.193C84.0151 198.398 83.4129 197.773 82.6023 197.318C81.7992 196.864 80.7803 196.636 79.5455 196.636H74.2159V218H72.0909Z" fill="black"/>
<path d="M20 128.364H96.8523V130.545H20V128.364Z" fill="black"/>
<rect x="0.5" y="30.5" width="321" height="321" stroke="black"/>
</svg>
